<?xml version="1.0" encoding="UTF-8"?>
<!DOCTYPE svg PUBLIC "-//W3C//DTD SVG 1.0//EN" "http://www.w3.org/TR/2001/REC-SVG-20010904/DTD/svg10.dtd">
<!-- Creator: CorelDRAW -->
<svg xmlns="http://www.w3.org/2000/svg" xml:space="preserve" width="757px" height="757px" version="1.0" shape-rendering="geometricPrecision" text-rendering="geometricPrecision" image-rendering="optimizeQuality" fill-rule="evenodd" clip-rule="evenodd"
viewBox="0 0 35324000 35349000"
 xmlns:xlink="http://www.w3.org/1999/xlink"
 xmlns:xodm="http://www.corel.com/coreldraw/odm/2003">
 <g id="Capa_x0020_1">
  <metadata id="CorelCorpID_0Corel-Layer"/>
  <g id="_2960906476176">
   <path fill="#FE4949" d="M17594000 6973000c1258000,0 2311000,547000 2952000,1190000 387000,388000 607000,681000 869000,1203000 1023000,2041000 151000,4639000 -1864000,5640000 -1764000,875000 -3571000,522000 -4978000,-869000 -2487000,-2461000 -749000,-7164000 3021000,-7164000zm-6973000 14999000l2047000 2493000c704000,872000 1539000,1558000 2275000,2351000 321000,345000 445000,464000 779000,740000 330000,272000 514000,530000 882000,720000l723000 -652000c832000,-856000 1330000,-1254000 2278000,-2278000 729000,-789000 1429000,-1542000 2082000,-2405000 1443000,-1903000 1774000,-2377000 2980000,-4545000 723000,-1300000 1267000,-2840000 1639000,-4443000 852000,-3671000 -210000,-7197000 -2002000,-9547000 -1607000,-2106000 -4007000,-3801000 -7746000,-4382000 -1113000,285000 -1809000,117000 -3543000,989000 -265000,134000 -510000,206000 -752000,353000l-1327000 883000c-747000,560000 -1702000,1470000 -2235000,2252000 -180000,264000 -305000,409000 -475000,699000 -736000,1247000 -628000,1071000 -1106000,2277000 -1074000,2711000 -673000,5973000 282000,8653000 653000,1833000 1356000,2940000 2292000,4474000l927000 1368000z"/>
   <path fill="#FEDB56" d="M3510000 26097000c-359000,680000 -1200000,3064000 -1588000,3798000l4648000 -5000 -2213000 5459000 4195000 0 3592000 -8840000c273000,128000 409000,317000 648000,522000 1348000,1155000 3332000,2739000 4562000,3862000l4554000 3869000c230000,211000 422000,322000 650000,587000l6134000 0c-210000,-280000 -498000,-455000 -745000,-690000l-1903000 -1684000c-184000,-151000 -216000,-163000 -408000,-352000 -138000,-135000 -231000,-185000 -380000,-313000l-1176000 -1032000c-187000,-177000 -187000,-187000 -365000,-325000l-1164000 -1058000 8341000 -6000 -1570000 -3791000 -8209000 -5000c-406000,265000 -1269000,1255000 -1598000,1510000 -210000,164000 -338000,321000 -546000,489000 -210000,171000 -931000,845000 -1156000,922000 -440000,152000 -1111000,-531000 -1209000,-738000 -368000,-190000 -552000,-448000 -882000,-720000 -334000,-276000 -458000,-395000 -779000,-740000 -736000,-793000 -1571000,-1479000 -2275000,-2351000l-2047000 -2493000 -762000 -17000 -1697000 4142000 -4652000 0z"/>
   <path fill="#E7343F" d="M16604000 28276000c98000,207000 769000,890000 1209000,738000 225000,-77000 946000,-751000 1156000,-922000 208000,-168000 336000,-325000 546000,-489000 329000,-255000 1192000,-1245000 1598000,-1510000 179000,-264000 2855000,-3023000 3494000,-4138000l996000 -1380000c160000,-240000 278000,-463000 443000,-731000 1354000,-2200000 2749000,-5413000 2733000,-8106000 -7000,-1282000 47000,-1011000 -126000,-2292000 -400000,-2945000 -2217000,-5690000 -4598000,-7415000 -259000,-187000 -457000,-288000 -717000,-457000 -370000,-239000 -1132000,-648000 -1558000,-789000 -357000,-119000 -561000,-223000 -916000,-327000 -494000,-146000 -1533000,-362000 -2533000,-458000l-1647000 0c-43000,7000 -85000,15000 -126000,24000 3739000,581000 6139000,2276000 7746000,4382000 1792000,2350000 2854000,5876000 2002000,9547000 -372000,1603000 -916000,3143000 -1639000,4443000 -1206000,2168000 -1537000,2642000 -2980000,4545000 -653000,863000 -1353000,1616000 -2082000,2405000 -948000,1024000 -1446000,1422000 -2278000,2278000l-723000 652000z"/>
   <path fill="#4CE165" d="M8552000 35349000l14006000 0c-228000,-265000 -420000,-376000 -650000,-587000l-4554000 -3869000c-1230000,-1123000 -3214000,-2707000 -4562000,-3862000 -239000,-205000 -375000,-394000 -648000,-522000l-3592000 8840000z"/>
   <path fill="#A8EDFC" d="M28692000 35349000l4468000 0 -2226000 -5458000 -42000 -2000 -8341000 6000 1164000 1058000c178000,138000 178000,148000 365000,325000l1176000 1032000c149000,128000 242000,178000 380000,313000 192000,189000 224000,201000 408000,352000l1903000 1684000c247000,235000 535000,410000 745000,690000z"/>
   <path fill="#A8EDFC" d="M4357000 35349000l2213000 -5459000 -4648000 5000c-21000,254000 -1566000,3933000 -1681000,4187000 -476000,1059000 -201000,1241000 421000,1267000l707000 0 47000 0 47000 0c747000,0 1494000,0 2240000,0l47000 0 47000 0 47000 0 46000 0 47000 0 47000 0 46000 0 47000 0 47000 0 46000 0 47000 0 47000 0 46000 0 47000 0z"/>
   <path fill="#4CE165" d="M21113000 26093000l8209000 5000 -1681000 -4143000 -3034000 0c-639000,1115000 -3315000,3874000 -3494000,4138000z"/>
   <path fill="#4CE165" d="M3510000 26097000l4652000 0 1697000 -4142000 -3935000 -2000c-592000,-6000 -716000,-1000 -889000,423000l-1525000 3721000z"/>
   <path fill="#7EE5F2" d="M34661000 35349000c907000,-53000 827000,-380000 105000,-2052000l-1046000 -2544000c-133000,-333000 -217000,-578000 -385000,-887000l-2401000 25000 2226000 5458000 1501000 0z"/>
   <path fill="#44C868" d="M29322000 26098000c554000,-2000 2137000,-111000 2494000,62000 -52000,-213000 -200000,-493000 -296000,-733000l-1229000 -2982000c-322000,-780000 -1071000,-490000 -2650000,-490000l1681000 4143000z"/>
   <path fill="#FFBB24" d="M30892000 29889000l42000 2000 2401000 -25000c-97000,-333000 -227000,-601000 -364000,-919000l-1155000 -2787000c-357000,-173000 -1940000,-64000 -2494000,-62000l1570000 3791000z"/>
  </g>
 </g>
</svg>
