<?xml version="1.0" encoding="UTF-8"?>
<!DOCTYPE svg PUBLIC "-//W3C//DTD SVG 1.0//EN" "http://www.w3.org/TR/2001/REC-SVG-20010904/DTD/svg10.dtd">
<!-- Creator: CorelDRAW -->
<svg xmlns="http://www.w3.org/2000/svg" xml:space="preserve" width="200px" height="210px" version="1.0" style="shape-rendering:geometricPrecision; text-rendering:geometricPrecision; image-rendering:optimizeQuality; fill-rule:evenodd; clip-rule:evenodd"
viewBox="0 0 13574000 14247000"
 xmlns:xlink="http://www.w3.org/1999/xlink"
 xmlns:xodm="http://www.corel.com/coreldraw/odm/2003">
 <defs>
  <style type="text/css">
   <![CDATA[
    .str0 {stroke:#373435;stroke-width:57000;stroke-miterlimit:22.9256}
    .fil0 {fill:#00A859}
   ]]>
  </style>
 </defs>
 <g id="Capa_x0020_1">
  <metadata id="CorelCorpID_0Corel-Layer"/>
  <path class="fil0 str0" d="M29000 29000l13516000 0 0 14190000 -13516000 0 0 -14190000zm716000 752000l12084000 0 0 12686000 -12084000 0 0 -12686000zm2180000 5225000l909000 0 0 1668000 -1992000 0 -406000 -259000 0 -1409000 909000 0 0 1223000 580000 0 0 -1223000zm-519000 -61000l-1031000 0 0 1504000 39000 25000 52000 53000 445000 283000 2059000 0 0 -1773000 -75000 -75000 0 -17000 -1031000 0 0 1223000 -383000 0 0 -1131000 -75000 -75000 0 -17000zm3262000 506000l-580000 0 0 1223000 -909000 0 0 -1668000 1992000 0 406000 259000 0 1409000 -909000 458000 0 -1681000zm-61000 1781000l14000 -8000 78000 78000 1014000 -511000 0 -1471000 -75000 -75000 0 -14000 -447000 -286000 -2073000 0 0 1790000 16000 0 75000 75000 1015000 0 0 -1223000 383000 0 0 1645000zm1268000 -8000l-14000 8000 0 -2287000 2520000 0 0 17000 75000 75000 0 1189000 -1489000 0 0 565000 -1015000 511000 -77000 -78000zm1536000 -1773000l0 197000 -580000 0 0 -197000 580000 0zm-580000 1223000l0 -584000 1489000 0 0 -1084000 -2398000 0 0 2126000 909000 -458000zm1789000 61000l-16000 0 0 -1790000 2520000 0 0 17000 75000 75000 0 1754000 -1014000 511000 -78000 -78000 -14000 8000 0 -1006000 -383000 0 0 584000 -1015000 0 -75000 -75000zm1534000 -1087000l-580000 0 0 -197000 580000 0 0 197000zm909000 1026000l0 -1668000 -2398000 0 0 1668000 909000 0 0 -584000 580000 0 0 1042000 909000 -458000z"/>
 </g>
</svg>
