<?xml version="1.0" encoding="UTF-8"?>
<!DOCTYPE svg PUBLIC "-//W3C//DTD SVG 1.0//EN" "http://www.w3.org/TR/2001/REC-SVG-20010904/DTD/svg10.dtd">
<!-- Creator: CorelDRAW -->
<svg xmlns="http://www.w3.org/2000/svg" xml:space="preserve" width="560px" height="587px" version="1.0" style="shape-rendering:geometricPrecision; text-rendering:geometricPrecision; image-rendering:optimizeQuality; fill-rule:evenodd; clip-rule:evenodd"
viewBox="0 0 38007000 39892000"
 xmlns:xlink="http://www.w3.org/1999/xlink"
 xmlns:xodm="http://www.corel.com/coreldraw/odm/2003">
 <defs>
  <style type="text/css">
   <![CDATA[
    .str0 {stroke:#373435;stroke-width:160000;stroke-miterlimit:22.9256}
    .fil0 {fill:#FFF212}
   ]]>
  </style>
 </defs>
 <g id="Capa_x0020_1">
  <metadata id="CorelCorpID_0Corel-Layer"/>
  <path class="fil0 str0" d="M80000 80000l37847000 0 0 39732000 -37847000 0 0 -39732000zm2006000 2106000l33836000 0 0 35520000 -33836000 0 0 -35520000zm6105000 14632000l2545000 0 0 4669000 -5580000 0 -1136000 -724000 0 -3945000 2545000 0 0 3424000 1626000 0 0 -3424000zm-1455000 -171000l-2887000 0 0 4209000 109000 70000 148000 148000 1245000 794000 5766000 0 0 -4965000 -210000 -210000 0 -46000 -2887000 0 0 3424000 -1074000 0 0 -3168000 -210000 -210000 0 -46000zm9136000 1416000l-1627000 0 0 3424000 -2544000 0 0 -4669000 5579000 0 1136000 724000 0 3945000 -2544000 1284000 0 -4708000zm-172000 4988000l39000 -23000 218000 217000 2840000 -1431000 0 -4117000 -210000 -210000 0 -39000 -1252000 -801000 -5805000 0 0 5011000 46000 0 210000 210000 2841000 0 0 -3424000 1073000 0 0 4607000zm3549000 -23000l-39000 23000 0 -6404000 7058000 0 0 46000 210000 210000 0 3331000 -4171000 0 0 1580000 -2840000 1431000 -218000 -217000zm4303000 -4965000l0 552000 -1626000 0 0 -552000 1626000 0zm-1626000 3424000l0 -1634000 4171000 0 0 -3035000 -6716000 0 0 5953000 2545000 -1284000zm5011000 171000l-47000 0 0 -5011000 7058000 0 0 46000 210000 210000 0 4911000 -2840000 1431000 -218000 -217000 -39000 23000 0 -2817000 -1074000 0 0 1634000 -2840000 0 -210000 -210000zm4295000 -3043000l-1626000 0 0 -552000 1626000 0 0 552000zm2545000 2872000l0 -4669000 -6715000 0 0 4669000 2544000 0 0 -1634000 1626000 0 0 2918000 2545000 -1284000z"/>
 </g>
</svg>
