<?xml version="1.0" encoding="UTF-8"?>
<!DOCTYPE svg PUBLIC "-//W3C//DTD SVG 1.0//EN" "http://www.w3.org/TR/2001/REC-SVG-20010904/DTD/svg10.dtd">
<!-- Creator: CorelDRAW -->
<?xml-stylesheet href="unpa3.css" type="text/css"?>
<svg xmlns="http://www.w3.org/2000/svg" xml:space="preserve" width="800px" height="839px" version="1.0" style="shape-rendering:geometricPrecision; text-rendering:geometricPrecision; image-rendering:optimizeQuality; fill-rule:evenodd; clip-rule:evenodd"
viewBox="0 0 54296000 56989000"
 xmlns:xlink="http://www.w3.org/1999/xlink"
 xmlns:xodm="http://www.corel.com/coreldraw/odm/2003">
 <g id="Capa_x0020_1">
  <metadata id="CorelCorpID_0Corel-Layer"/>
  <path class="fil0 str0" d="M115000 115000l54067000 0 0 56759000 -54067000 0 0 -56759000zm2865000 3008000l48336000 0 0 50743000 -48336000 0 0 -50743000zm8722000 20903000l3635000 0 0 6669000 -7971000 0 -1623000 -1033000 0 -5636000 3635000 0 0 4891000 2324000 0 0 -4891000zm-2079000 -245000l-4124000 0 0 6014000 155000 100000 212000 211000 1778000 1134000 8238000 0 0 -7092000 -301000 -300000 0 -67000 -4124000 0 0 4891000 -1534000 0 0 -4524000 -300000 -300000 0 -67000zm13051000 2023000l-2324000 0 0 4891000 -3635000 0 0 -6669000 7971000 0 1623000 1033000 0 5636000 -3635000 1835000 0 -6726000zm-245000 7126000l56000 -34000 311000 312000 4058000 -2046000 0 -5880000 -301000 -301000 0 -55000 -1789000 -1145000 -8293000 0 0 7159000 66000 0 301000 300000 4057000 0 0 -4891000 1534000 0 0 6581000zm5069000 -34000l-55000 34000 0 -9149000 10082000 0 0 67000 301000 300000 0 4758000 -5959000 0 0 2256000 -4057000 2046000 -312000 -312000zm6148000 -7092000l0 789000 -2324000 0 0 -789000 2324000 0zm-2324000 4891000l0 -2334000 5959000 0 0 -4335000 -9594000 0 0 8504000 3635000 -1835000zm7159000 245000l-66000 0 0 -7159000 10082000 0 0 67000 300000 300000 0 7014000 -4057000 2046000 -311000 -312000 -56000 34000 0 -4024000 -1534000 0 0 2334000 -4057000 0 -301000 -300000zm6137000 -4347000l-2324000 0 0 -789000 2324000 0 0 789000zm3635000 4102000l0 -6669000 -9594000 0 0 6669000 3635000 0 0 -2334000 2324000 0 0 4169000 3635000 -1835000z"/>
 </g>
</svg>
